#N canvas 202 476 566 610 10;
#X obj 136 -314 hsl 128 15 0 1 0 0 empty empty empty -2 -8 0 10 -262144
-1 -1 8600 1;
#X obj 197 4 dac~;
#X obj 101 -158 windywindow;
#X obj 253 -159 thunder;
#X obj 218 -229 sel 1;
#X obj 208 -253 change;
#X obj 190 -280 > 0.75;
#X obj 139 -93 *~ 0.5;
#X connect 0 0 2 0;
#X connect 0 0 6 0;
#X connect 2 0 7 0;
#X connect 3 0 1 1;
#X connect 3 0 1 0;
#X connect 4 0 3 0;
#X connect 5 0 4 0;
#X connect 6 0 5 0;
#X connect 7 0 1 0;
#X connect 7 0 1 1;
