#N canvas 281 742 450 300 10;
#X obj 151 -252 hsl 128 15 0 1 0 0 empty empty empty -2 -8 0 10 -262144
-1 -1 4900 1;
#X obj 197 -54 dac~;
#X obj 101 -158 windywindow;
#X obj 253 -159 thunder;
#X obj 290 -221 bng 15 250 50 0 empty empty empty 17 7 0 10 -262144
-1 -1;
#X connect 0 0 2 0;
#X connect 2 0 1 0;
#X connect 2 0 1 1;
#X connect 3 0 1 1;
#X connect 3 0 1 0;
#X connect 4 0 3 0;
