#N canvas 85 58 907 674 10;
#X obj 185 278 textfile;
#X msg 202 207 rewind;
#X obj 129 321 print a;
#X floatatom 230 329 5 0 0 0 - - -, f 5;
#X msg 261 235 bang;
#X obj 307 268 bng 15 250 50 0 empty empty empty 17 7 0 10 -262144
-1 -1;
#X floatatom 256 410 5 0 0 0 - - -, f 5;
#X text 68 77 reading values normalized between 0 and 100;
#X obj 320 186 metro;
#X obj 236 367 / 100;
#X obj 298 701 dac~;
#X obj 202 539 windywindow;
#X obj 354 538 thunder;
#X obj 361 491 sel 1;
#X obj 351 467 change;
#X obj 333 440 > 0.75;
#X obj 176 479 min 0.6;
#X obj 210 442 + 0.1;
#X floatatom 469 66 5 0 0 0 - - -, f 5;
#X floatatom 471 156 5 0 0 0 - - -, f 5;
#X obj 471 110 expr (1000/$f1);
#X text 514 57 30FPS;
#X text 517 157 ms, f 4;
#X msg 102 139 read change_total_final.csv cr;
#X obj 325 159 tgl 15 0 empty empty empty 17 7 0 10 -262144 -1 -1 0
1;
#X msg 518 512 open rec.wav;
#X obj 512 688 writesf~ 2;
#X msg 578 578 start;
#X msg 596 618 stop;
#X obj 240 604 *~ 2;
#X connect 0 0 2 0;
#X connect 0 0 3 0;
#X connect 1 0 0 0;
#X connect 3 0 9 0;
#X connect 4 0 0 0;
#X connect 5 0 0 0;
#X connect 6 0 15 0;
#X connect 6 0 17 0;
#X connect 8 0 5 0;
#X connect 9 0 6 0;
#X connect 11 0 29 0;
#X connect 12 0 10 1;
#X connect 12 0 10 0;
#X connect 12 0 26 0;
#X connect 12 0 26 1;
#X connect 13 0 12 0;
#X connect 14 0 13 0;
#X connect 15 0 14 0;
#X connect 16 0 11 0;
#X connect 17 0 16 0;
#X connect 18 0 20 0;
#X connect 19 0 8 1;
#X connect 20 0 19 0;
#X connect 23 0 0 0;
#X connect 24 0 8 0;
#X connect 24 0 27 0;
#X connect 25 0 26 0;
#X connect 27 0 26 0;
#X connect 28 0 26 0;
#X connect 29 0 10 0;
#X connect 29 0 10 1;
#X connect 29 0 26 0;
#X connect 29 0 26 1;
