#N canvas 687 58 679 674 10;
#X obj 185 278 textfile;
#X msg 202 207 rewind;
#X obj 129 321 print a;
#X floatatom 230 329 5 0 0 0 - - -, f 5;
#X msg 261 235 bang;
#X obj 307 268 bng 15 250 50 0 empty empty empty 17 7 0 10 -262144
-1 -1;
#X obj 325 159 tgl 15 0 empty empty empty 17 7 0 10 -262144 -1 -1 1
1;
#X msg 125 130 read change_total_final.csv cr;
#X floatatom 256 410 5 0 0 0 - - -, f 5;
#X text 68 77 reading values normalized between 0 and 100;
#X floatatom 530 111 5 0 0 0 - - -, f 5;
#X floatatom 462 51 5 0 0 0 - - -, f 5;
#X floatatom 579 54 5 0 0 0 - - -, f 5;
#X obj 535 78 /;
#X text 602 86 30FPS;
#X obj 532 136 * 1000;
#X floatatom 531 165 5 0 0 0 - - -, f 5;
#X obj 320 186 metro;
#X obj 236 367 / 100;
#X obj 298 701 dac~;
#X obj 202 539 windywindow;
#X obj 354 538 thunder;
#X obj 361 491 sel 1;
#X obj 351 467 change;
#X obj 333 440 > 0.75;
#X obj 240 604 *~ 0.5;
#X obj 176 479 min 0.6;
#X obj 210 442 + 0.1;
#X connect 0 0 2 0;
#X connect 0 0 3 0;
#X connect 1 0 0 0;
#X connect 3 0 18 0;
#X connect 4 0 0 0;
#X connect 5 0 0 0;
#X connect 6 0 17 0;
#X connect 7 0 0 0;
#X connect 8 0 24 0;
#X connect 8 0 27 0;
#X connect 10 0 15 0;
#X connect 11 0 13 0;
#X connect 12 0 13 1;
#X connect 13 0 10 0;
#X connect 15 0 16 0;
#X connect 16 0 17 1;
#X connect 17 0 5 0;
#X connect 18 0 8 0;
#X connect 20 0 25 0;
#X connect 21 0 19 1;
#X connect 21 0 19 0;
#X connect 22 0 21 0;
#X connect 23 0 22 0;
#X connect 24 0 23 0;
#X connect 25 0 19 0;
#X connect 25 0 19 1;
#X connect 26 0 20 0;
#X connect 27 0 26 0;
